<?xml version="1.0" encoding="utf-8"?>
<!-- Generator: Adobe Illustrator 15.0.0, SVG Export Plug-In  -->
<!DOCTYPE svg PUBLIC "-//W3C//DTD SVG 1.1//EN" "http://www.w3.org/Graphics/SVG/1.1/DTD/svg11.dtd" [
	<!ENTITY ns_flows "http://ns.adobe.com/Flows/1.0/">
]>
<svg version="1.1"
	 xmlns="http://www.w3.org/2000/svg" xmlns:xlink="http://www.w3.org/1999/xlink" xmlns:a="http://ns.adobe.com/AdobeSVGViewerExtensions/3.0/"
	 x="0px" y="0px" width="16px" height="16px" viewBox="0 0 16 16" overflow="visible" enable-background="new 0 0 16 16"
	 xml:space="preserve">
<defs>
</defs>
<circle fill="#FBFBFB" stroke="#8D8D8E" stroke-width="0.5" stroke-miterlimit="10" cx="8" cy="8" r="7.75"/>
<path id="rect7223-2-4-9-4-2-3_2_" inkscape:connector-curvature="0" sodipodi:nodetypes="cccccccccccccccccccccccccccccccccccc" fill="#1D71B8" d="
	M5.318,2.682C4.909,2.682,4.5,3.091,4.5,3.5v9c0,0.409,0.409,0.818,0.818,0.818h4.909c0.409,0,0.818-0.409,0.818-0.818v-2.454
	c0.134,0,0.204,0,0.204,0c0.112,0,0.204,0.078,0.204,0.204c0,0.155,0,0.468,0,0.613c0,0.409,0.409,0.818,0.818,0.818
	c0.105,0,0.281,0,0.409,0c0.409,0,0.818-0.333,0.818-0.818c0-0.689,0-2.272,0-2.863c0-0.818-0.818-0.818-0.818-1.637V5.136h-0.818
	l-0.817-0.818V3.5c0-0.409-0.409-0.818-0.818-0.818H5.318z M5.318,3.909h4.909v2.045H5.318V3.909z M11.046,6.772h0.817
	c0,0.818,0.818,0.818,0.818,1.637v2.25c0,0.204-0.204,0.204-0.204,0.204s-0.205,0-0.205-0.204c0,0,0-0.344,0-0.613
	c0-0.483-0.409-0.82-0.818-0.818h-0.408V6.772z"/>
</svg>
