<?xml version="1.0" encoding="utf-8"?>
<!-- Generator: Adobe Illustrator 15.0.0, SVG Export Plug-In  -->
<!DOCTYPE svg PUBLIC "-//W3C//DTD SVG 1.1//EN" "http://www.w3.org/Graphics/SVG/1.1/DTD/svg11.dtd" [
	<!ENTITY ns_flows "http://ns.adobe.com/Flows/1.0/">
]>
<svg version="1.1"
	 xmlns="http://www.w3.org/2000/svg" xmlns:xlink="http://www.w3.org/1999/xlink" xmlns:a="http://ns.adobe.com/AdobeSVGViewerExtensions/3.0/"
	 x="0px" y="0px" width="20px" height="20px" viewBox="0.001 0 20 20" overflow="visible" enable-background="new 0.001 0 20 20"
	 xml:space="preserve">
<defs>
</defs>
<circle fill="#FBFBFB" stroke="#8D8D8E" stroke-width="0.75" stroke-miterlimit="10" cx="10.001" cy="10" r="9.626"/>
<path id="rect7223-2-4-9-4-2-3_2_" inkscape:connector-curvature="0" sodipodi:nodetypes="cccccccccccccccccccccccccccccccccccc" fill="#4F74A1" d="
	M6.705,3.795c-0.477,0-0.954,0.478-0.954,0.955v10.5c0,0.478,0.478,0.954,0.954,0.954h5.728c0.478,0,0.955-0.477,0.955-0.954v-2.863
	c0.156,0,0.238,0,0.238,0c0.131,0,0.238,0.091,0.238,0.238c0,0.181,0,0.546,0,0.716c0,0.478,0.478,0.955,0.955,0.955
	c0.123,0,0.328,0,0.478,0c0.477,0,0.954-0.39,0.954-0.955c0-0.806,0-2.651,0-3.341c0-0.954-0.954-0.954-0.954-1.909V6.659h-0.955
	l-0.954-0.955V4.75c0-0.477-0.478-0.955-0.955-0.955H6.705z M6.705,5.227h5.728v2.387H6.705V5.227z M13.388,8.568h0.954
	c0,0.954,0.955,0.954,0.955,1.909v2.625c0,0.238-0.239,0.238-0.239,0.238s-0.238,0-0.238-0.238c0,0,0-0.401,0-0.716
	c0-0.565-0.478-0.957-0.955-0.955h-0.477V8.568z"/>
</svg>
