<?xml version="1.0" encoding="utf-8"?>
<!-- Generator: Adobe Illustrator 15.0.0, SVG Export Plug-In  -->
<!DOCTYPE svg PUBLIC "-//W3C//DTD SVG 1.1//EN" "http://www.w3.org/Graphics/SVG/1.1/DTD/svg11.dtd" [
	<!ENTITY ns_flows "http://ns.adobe.com/Flows/1.0/">
]>
<svg version="1.1"
	 xmlns="http://www.w3.org/2000/svg" xmlns:xlink="http://www.w3.org/1999/xlink" xmlns:a="http://ns.adobe.com/AdobeSVGViewerExtensions/3.0/"
	 x="0px" y="0px" width="20px" height="20px" viewBox="0.001 0 20 20" overflow="visible" enable-background="new 0.001 0 20 20"
	 xml:space="preserve">
<defs>
</defs>
<circle fill="#FBFBFB" stroke="#8D8D8E" stroke-width="0.75" stroke-miterlimit="10" cx="10.001" cy="10" r="9.626"/>
<path id="rect8206-4-3_2_" sodipodi:nodetypes="sscsssscsssscsssscsss" inkscape:connector-curvature="0" fill="#D25027" d="
	M8.617,4C8.105,4,7.693,4.412,7.693,4.923v2.77h-2.77c-0.511,0-0.923,0.412-0.923,0.923v2.769c0,0.513,0.438,1.085,0.923,0.923h2.77
	v2.77C7.693,15.589,8.105,16,8.617,16h2.769c0.513,0,0.923-0.411,0.923-0.923v-2.77h2.77c0.512,0,0.923-0.411,0.923-0.923V8.616
	c0-0.512-0.411-0.923-0.923-0.923h-2.77v-2.77C12.309,4.412,11.898,4,11.385,4H8.617z"/>
</svg>
