<?xml version="1.0" encoding="utf-8"?>
<!-- Generator: Adobe Illustrator 15.0.0, SVG Export Plug-In . SVG Version: 6.00 Build 0)  -->
<!DOCTYPE svg PUBLIC "-//W3C//DTD SVG 1.1//EN" "http://www.w3.org/Graphics/SVG/1.1/DTD/svg11.dtd">
<svg version="1.1" id="Layer_1" xmlns="http://www.w3.org/2000/svg" xmlns:xlink="http://www.w3.org/1999/xlink" x="0px" y="0px"
	 width="16px" height="16px" viewBox="0 0 16 16" enable-background="new 0 0 16 16" xml:space="preserve">
<circle fill="#FBFBFB" stroke="#2D2D2D" stroke-width="0.5" stroke-miterlimit="10" cx="8" cy="8" r="7.75"/>
<g id="hospital-12" transform="translate(-282,-81.999989)" inkscape:label="hospital-12" inkscape:export-xdpi="89.996864" inkscape:export-ydpi="89.996864">
	<g id="g5579" transform="translate(0,-1)" opacity="0.3">
		<path id="path5581" sodipodi:nodetypes="cscsccscsccscsccscscc" inkscape:connector-curvature="0" fill="none" d="M285.499,90.5
			c0-0.554,0.446-1,1-1h2v-2c0-0.554,0.446-1,1-1h1c0.556,0,1.001,0.446,1.001,1v2h2c0.555,0,1,0.446,1,1v1c0,0.554-0.445,1-1,1h-2
			v2c0,0.555-0.445,1-1.001,1h-1c-0.554,0-1-0.445-1-1v-2h-2c-0.554,0-1-0.445-1-1V90.5z"/>
	</g>
</g>
<path id="path4536-7" sodipodi:nodetypes="ssssscsccccsscscsssccssssss" inkscape:connector-curvature="0" fill="#454545" d="
	M3.769,4.087c-0.701,0-1.269,0.569-1.269,1.27c0,0.701,0.568,1.269,1.269,1.269s1.27-0.568,1.27-1.269
	C5.039,4.656,4.47,4.087,3.769,4.087z M5.885,5.145c0,1.692-0.846,2.539-2.116,2.539H2.923C2.5,7.683,2.5,8.106,2.5,8.106
	s0,0.423,0.423,0.423H13.5V7.048c0-0.634,0-1.904-3.173-1.904H5.885z M3.135,9.376c-0.317,0-0.635,0.316-0.635,0.635
	c0,0.629,0,0.727,0,1.27c0,0.316,0.317,0.633,0.635,0.633s0.634-0.316,0.634-0.633v-1.059h8.461v1.059
	c0,0.316,0.317,0.633,0.635,0.633S13.5,11.597,13.5,11.28v-1.27c0-0.318-0.317-0.635-0.635-0.635H3.135z"/>
</svg>
