<?xml version="1.0" encoding="utf-8"?>
<!-- Generator: Adobe Illustrator 15.0.0, SVG Export Plug-In  -->
<!DOCTYPE svg PUBLIC "-//W3C//DTD SVG 1.1//EN" "http://www.w3.org/Graphics/SVG/1.1/DTD/svg11.dtd" [
	<!ENTITY ns_flows "http://ns.adobe.com/Flows/1.0/">
]>
<svg version="1.1"
	 xmlns="http://www.w3.org/2000/svg" xmlns:xlink="http://www.w3.org/1999/xlink" xmlns:a="http://ns.adobe.com/AdobeSVGViewerExtensions/3.0/"
	 x="0px" y="0px" width="20px" height="20px" viewBox="0 0 20 20" overflow="visible" enable-background="new 0 0 20 20"
	 xml:space="preserve">
<defs>
</defs>
<path fill="#6EB4E4" stroke="#57A6D4" stroke-miterlimit="10" d="M19.5,14.302c0,3.549-1.649,5.198-5.198,5.198H5.697
	C2.15,19.5,0.5,17.851,0.5,14.302V5.698C0.5,2.149,2.15,0.5,5.697,0.5h8.605c3.549,0,5.198,1.649,5.198,5.198V14.302z"/>
<polygon fill="#FFFFFF" points="7.157,2.992 10.058,8.99 13.114,2.992 17.334,16.058 18,16.058 18,17.008 12.867,17.008 
	12.867,16.058 13.796,16.058 12.276,11.18 10.058,15.562 7.748,11.18 6.413,16.058 7.281,16.058 7.281,17.008 2,17.008 2,16.058 
	2.751,16.058 "/>
</svg>
