<?xml version="1.0" encoding="utf-8"?>
<!-- Generator: Adobe Illustrator 15.0.0, SVG Export Plug-In  -->
<!DOCTYPE svg PUBLIC "-//W3C//DTD SVG 1.1//EN" "http://www.w3.org/Graphics/SVG/1.1/DTD/svg11.dtd" [
	<!ENTITY ns_flows "http://ns.adobe.com/Flows/1.0/">
]>
<svg version="1.1"
	 xmlns="http://www.w3.org/2000/svg" xmlns:xlink="http://www.w3.org/1999/xlink" xmlns:a="http://ns.adobe.com/AdobeSVGViewerExtensions/3.0/"
	 x="0px" y="0px" width="20px" height="20px" viewBox="0.001 0 20 20" overflow="visible" enable-background="new 0.001 0 20 20"
	 xml:space="preserve">
<defs>
</defs>
<circle fill="#FBFBFB" stroke="#8D8D8E" stroke-width="0.75" stroke-miterlimit="10" cx="10.001" cy="10" r="9.626"/>
<path id="path17507_2_" inkscape:connector-curvature="0" fill="#AA6E16" d="M11.168,3.933c-0.644,0-1.167,0.523-1.167,1.169
	c0,0.645,0.523,1.165,1.167,1.165s1.166-0.521,1.166-1.165C12.334,4.456,11.812,3.933,11.168,3.933z M5.859,4.867
	c-0.644,0-1.166,0.522-1.166,1.168c0,0.644,0.522,1.166,1.166,1.166s1.167-0.522,1.167-1.166C7.026,5.39,6.503,4.867,5.859,4.867z
	 M12.101,6.735c-0.262,0-0.69,0.094-1.05,0.35L8.776,8.717C8.158,9.156,8.725,9.916,9.301,9.535l1.488-0.993
	c0,0,0.408,0.333,0.612,0.993l-0.029,1.72l-1.517,4.053c-0.175,0.469,0.155,0.764,0.497,0.76c0.224,0,0.444-0.149,0.553-0.409
	l1.896-4.257c0,0,0.35,1.865,1.75,1.865c0.842,0,1.519,0,1.984,0s0.466-0.466,0.466-0.466s0-0.468-0.466-0.468
	c-0.35,0-1.518,0-1.866,0c0,0-0.468,0-0.468-0.932c0-0.656-0.729-2.332-0.934-2.8V8.133l2.334,1.284
	c0.634,0.422,1.199-0.326,0.584-0.787l-2.45-1.429C13.251,6.93,12.725,6.735,12.101,6.735L12.101,6.735z M5.451,7.667
	c-0.35,0-0.517,0.166-0.7,0.35L3.264,9.505c-0.191,0.192-0.263,0.362-0.263,0.612c0,0.35,0.521,0.529,0.817,0.234l1.283-1.284
	c0.293,0,0.7,0.037,0.7,0.468v1.981l-1.05,2.801c-0.291,0.776,0.801,1.013,1.05,0.35l1.05-2.8c0,0,0.35,0.466,1.05,0.466h2.042
	c0.699,0,0.699-0.932,0-0.932H8.134c0,0-0.467,0-0.467-0.469v-0.697c0-1.4-0.466-2.568-1.166-2.568H5.451z"/>
</svg>
