<?xml version="1.0" encoding="utf-8"?>
<!-- Generator: Adobe Illustrator 15.0.0, SVG Export Plug-In  -->
<!DOCTYPE svg PUBLIC "-//W3C//DTD SVG 1.1//EN" "http://www.w3.org/Graphics/SVG/1.1/DTD/svg11.dtd" [
	<!ENTITY ns_flows "http://ns.adobe.com/Flows/1.0/">
]>
<svg version="1.1"
	 xmlns="http://www.w3.org/2000/svg" xmlns:xlink="http://www.w3.org/1999/xlink" xmlns:a="http://ns.adobe.com/AdobeSVGViewerExtensions/3.0/"
	 x="0px" y="0px" width="16px" height="16px" viewBox="0 0 16 16" overflow="visible" enable-background="new 0 0 16 16"
	 xml:space="preserve">
<defs>
</defs>
<circle fill="#FBFBFB" stroke="#8D8D8E" stroke-width="0.5" stroke-miterlimit="10" cx="8" cy="8" r="7.75"/>
<path id="path17507_1_" inkscape:connector-curvature="0" fill="#B77B1A" d="M9.042,2.582C8.467,2.582,8,3.049,8,3.625
	s0.467,1.041,1.042,1.041s1.041-0.465,1.041-1.041S9.617,2.582,9.042,2.582z M4.302,3.416c-0.575,0-1.041,0.467-1.041,1.043
	c0,0.574,0.466,1.041,1.041,1.041s1.042-0.467,1.042-1.041C5.344,3.883,4.877,3.416,4.302,3.416z M9.875,5.084
	c-0.233,0-0.616,0.084-0.938,0.312L6.906,6.854c-0.552,0.393-0.046,1.07,0.469,0.73l1.328-0.887c0,0,0.364,0.297,0.547,0.887
	L9.224,9.119l-1.354,3.619c-0.156,0.418,0.139,0.682,0.443,0.678c0.2,0,0.396-0.133,0.494-0.365L10.5,9.25
	c0,0,0.312,1.666,1.562,1.666c0.752,0,1.355,0,1.771,0S14.25,10.5,14.25,10.5s0-0.418-0.416-0.418c-0.312,0-1.355,0-1.666,0
	c0,0-0.418,0-0.418-0.832c0-0.586-0.65-2.082-0.834-2.5V6.332L13,7.479c0.566,0.377,1.07-0.291,0.521-0.703L11.334,5.5
	C10.902,5.258,10.432,5.084,9.875,5.084L9.875,5.084z M3.938,5.916c-0.312,0-0.461,0.148-0.625,0.312L1.984,7.557
	C1.813,7.729,1.75,7.881,1.75,8.104c0,0.312,0.465,0.473,0.729,0.209l1.146-1.146c0.262,0,0.625,0.033,0.625,0.418v1.77l-0.938,2.5
	c-0.26,0.693,0.715,0.904,0.938,0.312l0.938-2.5c0,0,0.312,0.416,0.938,0.416h1.823c0.624,0,0.624-0.832,0-0.832H6.333
	c0,0-0.417,0-0.417-0.418V8.209c0-1.25-0.416-2.293-1.041-2.293H3.938z"/>
</svg>
