<?xml version="1.0" encoding="utf-8"?>
<!-- Generator: Adobe Illustrator 15.0.0, SVG Export Plug-In  -->
<!DOCTYPE svg PUBLIC "-//W3C//DTD SVG 1.1//EN" "http://www.w3.org/Graphics/SVG/1.1/DTD/svg11.dtd" [
	<!ENTITY ns_flows "http://ns.adobe.com/Flows/1.0/">
]>
<svg version="1.1"
	 xmlns="http://www.w3.org/2000/svg" xmlns:xlink="http://www.w3.org/1999/xlink" xmlns:a="http://ns.adobe.com/AdobeSVGViewerExtensions/3.0/"
	 x="0px" y="0px" width="20px" height="20px" viewBox="0.001 0 20 20" overflow="visible" enable-background="new 0.001 0 20 20"
	 xml:space="preserve">
<defs>
</defs>
<circle fill="#FBFBFB" stroke="#8D8D8E" stroke-width="0.75" stroke-miterlimit="10" cx="10.001" cy="10" r="9.626"/>
<path id="rect5769-7-5_1_" inkscape:connector-curvature="0" fill="#727C63" d="M6.501,3.5l-3,2v7c0,0.5,0.5,1,1,1h2.5l2,3h1h1l2-3
	h2.5c0.5,0,1-0.5,1-1V6l-3-2.5H6.501z M6.501,6.5h7v5h-7V6.5z M7.501,7.5v3h5v-3H7.501z M8.001,13.5h1.5v1h1v-1h1.5l-0.688,1h-0.812
	v1h-1v-1H8.688L8.001,13.5z"/>
</svg>
