<?xml version="1.0" encoding="utf-8"?>
<!-- Generator: Adobe Illustrator 15.0.0, SVG Export Plug-In  -->
<!DOCTYPE svg PUBLIC "-//W3C//DTD SVG 1.1//EN" "http://www.w3.org/Graphics/SVG/1.1/DTD/svg11.dtd" [
	<!ENTITY ns_flows "http://ns.adobe.com/Flows/1.0/">
]>
<svg version="1.1"
	 xmlns="http://www.w3.org/2000/svg" xmlns:xlink="http://www.w3.org/1999/xlink" xmlns:a="http://ns.adobe.com/AdobeSVGViewerExtensions/3.0/"
	 x="0px" y="0px" width="20px" height="20px" viewBox="0.001 0 20 20" overflow="visible" enable-background="new 0.001 0 20 20"
	 xml:space="preserve">
<defs>
</defs>
<circle fill="#FBFBFB" stroke="#8D8D8E" stroke-width="0.75" stroke-miterlimit="10" cx="10.001" cy="10" r="9.626"/>
<path id="rect8138-7-4_1_" inkscape:connector-curvature="0" sodipodi:nodetypes="sscsccssscccss" fill="#727C63" d="M7.883,3.5
	c-0.261,0-0.382,0-0.382,0.382v10.276c-1.529,0.047-2,1.077-2,1.842c0,0.383,0.5,0.5,0.5,0.5h8c0,0,0.5-0.117,0.5-0.5
	c0-1.912-0.854-3.5-2-3.5c-1.202,0-1.516,2.303-2.706,2.471c-0.522,0.074-1.026-0.264-1.529-0.525V8.088l5.353-2.294l-4.969-2.13
	C8.361,3.541,8.075,3.5,7.883,3.5L7.883,3.5z"/>
</svg>
