<?xml version="1.0" encoding="utf-8"?>
<!-- Generator: Adobe Illustrator 15.0.0, SVG Export Plug-In  -->
<!DOCTYPE svg PUBLIC "-//W3C//DTD SVG 1.1//EN" "http://www.w3.org/Graphics/SVG/1.1/DTD/svg11.dtd" [
	<!ENTITY ns_flows "http://ns.adobe.com/Flows/1.0/">
]>
<svg version="1.1"
	 xmlns="http://www.w3.org/2000/svg" xmlns:xlink="http://www.w3.org/1999/xlink" xmlns:a="http://ns.adobe.com/AdobeSVGViewerExtensions/3.0/"
	 x="0px" y="0px" width="20px" height="20px" viewBox="0.001 0 20 20" overflow="visible" enable-background="new 0.001 0 20 20"
	 xml:space="preserve">
<defs>
</defs>
<circle fill="#FBFBFB" stroke="#8D8D8E" stroke-width="0.75" stroke-miterlimit="10" cx="10.001" cy="10" r="9.626"/>
<path id="path6342-3_2_" inkscape:connector-curvature="0" sodipodi:nodetypes="ccccccccccsccccccccccccccccccccccccccccccccccc" fill="#AA6E14" d="
	M4.722,4.5c-0.359,0-0.721,0.362-0.721,0.721v5.077c0,1.592,0.705,3.49,3.577,3.49c0.257,0-0.11-0.024,0.115-0.058v-1.846H5.386
	c0,0,0.513-1.847,2.308-1.847V8.51c0-0.658,0.102-1.342,0.461-1.702c0.36-0.36,0.82-1.208,2.308-0.462l0.923,0.462V5.221
	c0-0.358-0.362-0.721-0.721-0.721c-0.667,0-2.048,0.923-2.971,0.923C6.77,5.423,5.389,4.5,4.722,4.5L4.722,4.5z M5.847,6.346
	c0.51,0,0.923,0.413,0.923,0.924c0,0.51-0.413,0.923-0.923,0.923S4.924,7.779,4.924,7.27C4.924,6.759,5.337,6.346,5.847,6.346z
	 M9.337,7.27c-0.338,0-0.721,0.362-0.721,0.721v4.817c0,1.592,0.82,3.692,3.692,3.692s3.692-2.101,3.692-3.692V7.99
	c0-0.358-0.382-0.721-0.721-0.721c-0.667,0-2.048,0.923-2.971,0.923C11.386,8.192,10.004,7.27,9.337,7.27z M10.462,9.115
	c0.51,0,0.923,0.413,0.923,0.923c0,0.511-0.413,0.924-0.923,0.924c-0.51,0-0.923-0.413-0.923-0.924
	C9.54,9.528,9.953,9.115,10.462,9.115z M14.155,9.115c0.51,0,0.923,0.413,0.923,0.923c0,0.511-0.413,0.924-0.923,0.924
	s-0.923-0.413-0.923-0.924C13.232,9.528,13.645,9.115,14.155,9.115z M10.001,12.808h2.365h2.25c0,0-0.513,1.847-2.308,1.847
	S10.001,12.808,10.001,12.808z"/>
</svg>
