<?xml version="1.0" encoding="utf-8"?>
<!-- Generator: Adobe Illustrator 15.0.0, SVG Export Plug-In . SVG Version: 6.00 Build 0)  -->
<!DOCTYPE svg PUBLIC "-//W3C//DTD SVG 1.1//EN" "http://www.w3.org/Graphics/SVG/1.1/DTD/svg11.dtd">
<svg version="1.1" id="Layer_1" xmlns="http://www.w3.org/2000/svg" xmlns:xlink="http://www.w3.org/1999/xlink" x="0px" y="0px"
	 width="16px" height="16px" viewBox="0 0 16 16" enable-background="new 0 0 16 16" xml:space="preserve">
<circle fill="#FBFBFB" stroke="#2D2D2D" stroke-width="0.5" stroke-miterlimit="10" cx="8" cy="8" r="7.75"/>
<g id="hospital-12" transform="translate(-282,-81.999989)" inkscape:label="hospital-12" inkscape:export-xdpi="89.996864" inkscape:export-ydpi="89.996864">
	<g id="g5579" transform="translate(0,-1)" opacity="0.3">
		<path id="path5581" sodipodi:nodetypes="cscsccscsccscsccscscc" inkscape:connector-curvature="0" fill="none" d="M285.499,90.5
			c0-0.554,0.446-1,1-1h2v-2c0-0.554,0.446-1,1-1h1c0.556,0,1.001,0.446,1.001,1v2h2c0.555,0,1,0.446,1,1v1c0,0.554-0.445,1-1,1h-2
			v2c0,0.555-0.445,1-1.001,1h-1c-0.554,0-1-0.445-1-1v-2h-2c-0.554,0-1-0.445-1-1V90.5z"/>
	</g>
	<g id="g21645" transform="translate(0,-1)">
		<path id="path5535" sodipodi:nodetypes="cscsccscsccscsccscscc" inkscape:connector-curvature="0" fill="#E30613" d="
			M284.75,90.417c0-0.646,0.52-1.166,1.166-1.166h2.333v-2.333c0-0.646,0.52-1.166,1.167-1.166h1.167
			c0.648,0,1.167,0.521,1.167,1.166v2.333h2.333c0.646,0,1.167,0.521,1.167,1.166v1.167c0,0.646-0.521,1.165-1.167,1.165h-2.333
			v2.334c0,0.646-0.52,1.166-1.167,1.166h-1.167c-0.646,0-1.167-0.52-1.167-1.166v-2.334h-2.333c-0.646,0-1.166-0.519-1.166-1.165
			V90.417z"/>
	</g>
</g>
</svg>
