<?xml version="1.0" encoding="utf-8"?>
<!-- Generator: Adobe Illustrator 15.0.0, SVG Export Plug-In  -->
<!DOCTYPE svg PUBLIC "-//W3C//DTD SVG 1.1//EN" "http://www.w3.org/Graphics/SVG/1.1/DTD/svg11.dtd" [
	<!ENTITY ns_flows "http://ns.adobe.com/Flows/1.0/">
]>
<svg version="1.1"
	 xmlns="http://www.w3.org/2000/svg" xmlns:xlink="http://www.w3.org/1999/xlink" xmlns:a="http://ns.adobe.com/AdobeSVGViewerExtensions/3.0/"
	 x="0px" y="0px" width="20px" height="20px" viewBox="0.001 0 20 20" overflow="visible" enable-background="new 0.001 0 20 20"
	 xml:space="preserve">
<defs>
</defs>
<circle fill="#FBFBFB" stroke="#8D8D8E" stroke-width="0.75" stroke-miterlimit="10" cx="10.001" cy="10" r="9.626"/>
<path id="rect7645-6-5-0-1_2_" inkscape:connector-curvature="0" sodipodi:nodetypes="cccccccccccccccccccccccccssccccccc" fill="#AA6E14" d="
	M10.001,2.954L5.092,6.228h9.818L10.001,2.954z M6.183,7.318c-0.545,0-1.091,0.545-1.091,1.03v5.515L4.001,15.5
	c0,0.395,0.256,0.546,0.545,0.546h10.909c0.279,0,0.545-0.151,0.545-0.546l-1.091-1.637V8.349c0-0.485-0.545-1.03-1.091-1.03H6.183z
	 M8.365,8.954c0.545,0,0.545,0,1.091,1.092l0.545,1.091l0.545-1.091c0.545-1.092,0.545-1.092,1.091-1.092s1.091,0.546,1.091,1.092
	v3.817c0,0.395-0.151,0.546-0.545,0.546c-0.394,0-0.545-0.151-0.545-0.546v-3.151l-1.091,2.061c-0.289,0.546-0.802,0.546-1.091,0
	l-1.091-2.061v3.151c0,0.395-0.151,0.546-0.545,0.546c-0.395,0-0.545-0.151-0.545-0.546v-0.788v-3.029
	C7.274,9.5,7.819,8.954,8.365,8.954z"/>
</svg>
