<?xml version="1.0" encoding="utf-8"?>
<!-- Generator: Adobe Illustrator 15.0.0, SVG Export Plug-In  -->
<!DOCTYPE svg PUBLIC "-//W3C//DTD SVG 1.1//EN" "http://www.w3.org/Graphics/SVG/1.1/DTD/svg11.dtd" [
	<!ENTITY ns_flows "http://ns.adobe.com/Flows/1.0/">
]>
<svg version="1.1"
	 xmlns="http://www.w3.org/2000/svg" xmlns:xlink="http://www.w3.org/1999/xlink" xmlns:a="http://ns.adobe.com/AdobeSVGViewerExtensions/3.0/"
	 x="0px" y="0px" width="16px" height="16px" viewBox="0 0 16 16" overflow="visible" enable-background="new 0 0 16 16"
	 xml:space="preserve">
<defs>
</defs>
<circle fill="#FBFBFB" stroke="#8D8D8E" stroke-width="0.5" stroke-miterlimit="10" cx="8" cy="8" r="7.75"/>
<path id="rect7645-6-5-0-1_2_" inkscape:connector-curvature="0" sodipodi:nodetypes="cccccccccccccccccccccccccssccccccc" fill="#AA6E14" d="
	M8,2.045L3.909,4.772h8.182L8,2.045z M4.818,5.682c-0.454,0-0.909,0.454-0.909,0.858v4.596L3,12.5c0,0.329,0.213,0.455,0.455,0.455
	h9.091c0.233,0,0.455-0.126,0.455-0.455l-0.909-1.364V6.54c0-0.404-0.455-0.858-0.909-0.858H4.818z M6.636,7.045
	c0.455,0,0.455,0,0.909,0.91L8,8.864l0.455-0.909c0.455-0.91,0.455-0.91,0.909-0.91c0.454,0,0.909,0.455,0.909,0.91v3.181
	c0,0.329-0.125,0.455-0.455,0.455c-0.328,0-0.454-0.126-0.454-0.455V8.51l-0.909,1.718c-0.241,0.454-0.668,0.454-0.909,0L6.636,8.51
	v2.626c0,0.329-0.126,0.455-0.454,0.455c-0.329,0-0.455-0.126-0.455-0.455v-0.656V7.955C5.728,7.5,6.182,7.045,6.636,7.045z"/>
</svg>
