<?xml version="1.0" encoding="utf-8"?>
<!-- Generator: Adobe Illustrator 15.0.0, SVG Export Plug-In  -->
<!DOCTYPE svg PUBLIC "-//W3C//DTD SVG 1.1//EN" "http://www.w3.org/Graphics/SVG/1.1/DTD/svg11.dtd" [
	<!ENTITY ns_flows "http://ns.adobe.com/Flows/1.0/">
]>
<svg version="1.1"
	 xmlns="http://www.w3.org/2000/svg" xmlns:xlink="http://www.w3.org/1999/xlink" xmlns:a="http://ns.adobe.com/AdobeSVGViewerExtensions/3.0/"
	 x="0px" y="0px" width="20px" height="20px" viewBox="-4.75 -2.398 20 20"
	 overflow="visible" enable-background="new -4.75 -2.398 20 20" xml:space="preserve">
<defs>
</defs>
<path id="path8599-0_2_" inkscape:connector-curvature="0" sodipodi:nodetypes="ccccsccccccscccscc" fill="#56A6D5" d="M0,0v15.203
	h3.23V9.788h1.378c1.885,0,3.352-0.416,4.371-1.283C10.004,7.638,10.5,6.386,10.5,4.751c0-1.574-0.463-2.774-1.425-3.563
	C8.118,0.391,6.69,0,4.846,0H0z M3.23,2.661h1.473c0.879,0,1.491,0.163,1.9,0.523c0.416,0.36,0.618,0.907,0.618,1.663
	c0,0.748-0.22,1.315-0.712,1.71C6.016,6.945,5.268,7.174,4.276,7.174H3.23V2.661z"/>
</svg>
