<?xml version="1.0" encoding="utf-8"?>
<!-- Generator: Adobe Illustrator 15.0.0, SVG Export Plug-In  -->
<!DOCTYPE svg PUBLIC "-//W3C//DTD SVG 1.1//EN" "http://www.w3.org/Graphics/SVG/1.1/DTD/svg11.dtd" [
	<!ENTITY ns_flows "http://ns.adobe.com/Flows/1.0/">
]>
<svg version="1.1"
	 xmlns="http://www.w3.org/2000/svg" xmlns:xlink="http://www.w3.org/1999/xlink" xmlns:a="http://ns.adobe.com/AdobeSVGViewerExtensions/3.0/"
	 x="0px" y="0px" width="14px" height="14px" viewBox="-3.25 -1.57 14 14"
	 overflow="visible" enable-background="new -3.25 -1.57 14 14" xml:space="preserve">
<defs>
</defs>
<path id="path8599-0_2_" inkscape:connector-curvature="0" sodipodi:nodetypes="ccccsccccccscccscc" fill="#56A6D5" d="M0,0v10.86
	h2.308V6.991h0.984c1.347,0,2.395-0.297,3.123-0.916C7.146,5.456,7.5,4.562,7.5,3.394c0-1.124-0.331-1.981-1.018-2.545
	C5.799,0.28,4.779,0,3.461,0H0z M2.308,1.901h1.052c0.628,0,1.065,0.116,1.358,0.373c0.297,0.257,0.441,0.648,0.441,1.188
	c0,0.535-0.157,0.94-0.509,1.222C4.297,4.961,3.763,5.125,3.054,5.125H2.308V1.901z"/>
</svg>
