<?xml version="1.0" encoding="utf-8"?>
<!-- Generator: Adobe Illustrator 15.0.0, SVG Export Plug-In  -->
<!DOCTYPE svg PUBLIC "-//W3C//DTD SVG 1.1//EN" "http://www.w3.org/Graphics/SVG/1.1/DTD/svg11.dtd" [
	<!ENTITY ns_flows "http://ns.adobe.com/Flows/1.0/">
]>
<svg version="1.1"
	 xmlns="http://www.w3.org/2000/svg" xmlns:xlink="http://www.w3.org/1999/xlink" xmlns:a="http://ns.adobe.com/AdobeSVGViewerExtensions/3.0/"
	 x="0px" y="0px" width="20px" height="20px" viewBox="0.002 0 20 20" overflow="visible" enable-background="new 0.002 0 20 20"
	 xml:space="preserve">
<defs>
</defs>
<circle fill="#FBFBFB" stroke="#8D8D8E" stroke-width="0.75" stroke-miterlimit="10" cx="10.001" cy="10" r="9.626"/>
<path id="path7552-2-1_2_" sodipodi:nodetypes="ssscssscsccccccccccc" inkscape:connector-curvature="0" fill="#AA6E14" d="M9.502,4
	c-3.391,0-6,2.61-6,6s2.609,6,6,6c1.896,0,3.873-0.65,5-2c-0.736,0.479-2.057,1-3,1c-2.593,0-4.527-2.546-4.527-5.139
	S8.909,5,11.502,5c0.943,0,2.264,0.521,3,1C13.375,4.65,11.397,4,9.502,4z M13.113,6.611L12.391,9H9.502l2.527,1.222L10.502,13
	l2.611-1.694L15.503,13l-1.307-2.778L16.502,9h-2.666L13.113,6.611z"/>
</svg>
