<?xml version="1.0" encoding="utf-8"?>
<!-- Generator: Adobe Illustrator 15.0.0, SVG Export Plug-In  -->
<!DOCTYPE svg PUBLIC "-//W3C//DTD SVG 1.1//EN" "http://www.w3.org/Graphics/SVG/1.1/DTD/svg11.dtd" [
	<!ENTITY ns_flows "http://ns.adobe.com/Flows/1.0/">
]>
<svg version="1.1"
	 xmlns="http://www.w3.org/2000/svg" xmlns:xlink="http://www.w3.org/1999/xlink" xmlns:a="http://ns.adobe.com/AdobeSVGViewerExtensions/3.0/"
	 x="0px" y="0px" width="20px" height="20px" viewBox="0.001 0 20 20" overflow="visible" enable-background="new 0.001 0 20 20"
	 xml:space="preserve">
<defs>
</defs>
<circle fill="#FBFBFB" stroke="#8D8D8E" stroke-width="0.75" stroke-miterlimit="10" cx="10.001" cy="10" r="9.626"/>
<path id="path10527-1-3_1_" inkscape:connector-curvature="0" sodipodi:nodetypes="ssssscssccsssssccssssccssssccsscc" fill="#727C63" d="
	M9.726,3.5c-0.756,0-1.369,0.612-1.369,1.368S8.97,6.236,9.726,6.236s1.367-0.612,1.367-1.368S10.481,3.5,9.726,3.5z M5.791,6.236
	l0.342,1.369c0.172,0.684,0.58,0.684,1.091,0.684h1.133c0.406,0.685,0.216,1.797,0.343,2.843h-0.62
	c-0.685,0-1.774,0.685-1.091,2.052l1.026,2.053c0.685,1.369,1.711,0.343,1.368-0.342l-1.026-2.053C8.186,12.5,8.538,12.5,8.699,12.5
	h1.688c0,0,0.81,1.693,1.764,2.925c0.352,0.455,0.742,1.075,1.23,1.075c0.342,0,0.928-0.528,0.305-1.273
	c-1.169-1.395-1.909-2.832-1.909-3.516c0-0.796-0.14-2.473-0.342-3.422h1.026c0.334,0.67,0.92,1.711,0.92,1.711
	c0.378,0.655,1,0.605,1,0c0-0.083-0.01-0.262-0.096-0.463l-0.969-2.273c-0.063-0.148-0.174-0.343-0.685-0.343H7.33l-0.513-1.71
	c-0.205-0.685-1.197-0.685-1.197,0C5.62,5.553,5.741,5.968,5.791,6.236L5.791,6.236z"/>
</svg>
