<?xml version="1.0" encoding="utf-8"?>
<!-- Generator: Adobe Illustrator 15.0.0, SVG Export Plug-In  -->
<!DOCTYPE svg PUBLIC "-//W3C//DTD SVG 1.1//EN" "http://www.w3.org/Graphics/SVG/1.1/DTD/svg11.dtd" [
	<!ENTITY ns_flows "http://ns.adobe.com/Flows/1.0/">
]>
<svg version="1.1"
	 xmlns="http://www.w3.org/2000/svg" xmlns:xlink="http://www.w3.org/1999/xlink" xmlns:a="http://ns.adobe.com/AdobeSVGViewerExtensions/3.0/"
	 x="0px" y="0px" width="20px" height="20px" viewBox="0.001 0 20 20" overflow="visible" enable-background="new 0.001 0 20 20"
	 xml:space="preserve">
<defs>
</defs>
<circle fill="#FBFBFB" stroke="#8D8D8E" stroke-width="0.75" stroke-miterlimit="10" cx="10.001" cy="10" r="9.626"/>
<path id="path16388_1_" inkscape:connector-curvature="0" fill="#727C63" d="M12.051,5.312c-0.114,0-0.313,0.048-0.406,0.094
	L8.77,6.812C8.385,6.994,8.235,7.564,8.488,7.906l0.875,1.188L5.645,11.25l2,0.812l2.156-0.875l2.156,0.875l0.844-0.875
	l-2.594-3.469l2.188-1.125c0.435-0.217,0.42-0.59,0.375-0.812C12.727,5.57,12.447,5.312,12.051,5.312L12.051,5.312z M13.801,7.688
	c-0.828,0-1.5,0.672-1.5,1.5s0.672,1.5,1.5,1.5s1.5-0.672,1.5-1.5S14.629,7.688,13.801,7.688z M9.801,12.188l-2,1l-2.5-0.938
	l-2,0.938v1.5l2-1l2.5,1l2-1.062l2,1.062l2-1.062l2.5,1.062v-1.5l-2.5-1l-2,1L9.801,12.188z"/>
</svg>
