<?xml version="1.0" encoding="utf-8"?>
<!-- Generator: Adobe Illustrator 15.0.0, SVG Export Plug-In  -->
<!DOCTYPE svg PUBLIC "-//W3C//DTD SVG 1.1//EN" "http://www.w3.org/Graphics/SVG/1.1/DTD/svg11.dtd" [
	<!ENTITY ns_flows "http://ns.adobe.com/Flows/1.0/">
]>
<svg version="1.1"
	 xmlns="http://www.w3.org/2000/svg" xmlns:xlink="http://www.w3.org/1999/xlink" xmlns:a="http://ns.adobe.com/AdobeSVGViewerExtensions/3.0/"
	 x="0px" y="0px" width="20px" height="20px" viewBox="0.001 0 20 20" overflow="visible" enable-background="new 0.001 0 20 20"
	 xml:space="preserve">
<defs>
</defs>
<circle fill="#FBFBFB" stroke="#8D8D8E" stroke-width="0.75" stroke-miterlimit="10" cx="10.001" cy="10" r="9.626"/>
<path id="path8176_2_" inkscape:connector-curvature="0" sodipodi:nodetypes="ccssssccccccccccssssssssssccccc" fill="#AA6E14" d="
	M6.501,3.5l-2,1.5v7.5c0,0.5,0.5,1,1,1h9c0.5,0,1-0.5,1-1V5l-2-1.5H6.501z M8.001,4.5h4l1.5,1v2h-7v-2L8.001,4.5z M7.251,10
	c0.414,0,0.75,0.336,0.75,0.75s-0.336,0.75-0.75,0.75s-0.75-0.336-0.75-0.75S6.837,10,7.251,10z M12.751,10
	c0.414,0,0.75,0.336,0.75,0.75s-0.336,0.75-0.75,0.75s-0.75-0.336-0.75-0.75S12.337,10,12.751,10z M9.001,14.5l-3.5,2h9l-3.5-2
	H9.001z"/>
</svg>
