<?xml version="1.0" encoding="utf-8"?>
<!-- Generator: Adobe Illustrator 15.0.0, SVG Export Plug-In  -->
<!DOCTYPE svg PUBLIC "-//W3C//DTD SVG 1.1//EN" "http://www.w3.org/Graphics/SVG/1.1/DTD/svg11.dtd" [
	<!ENTITY ns_flows "http://ns.adobe.com/Flows/1.0/">
]>
<svg version="1.1"
	 xmlns="http://www.w3.org/2000/svg" xmlns:xlink="http://www.w3.org/1999/xlink" xmlns:a="http://ns.adobe.com/AdobeSVGViewerExtensions/3.0/"
	 x="0px" y="0px" width="20px" height="20px" viewBox="0.001 0 20 20" overflow="visible" enable-background="new 0.001 0 20 20"
	 xml:space="preserve">
<defs>
</defs>
<circle fill="#FBFBFB" stroke="#8D8D8E" stroke-width="0.75" stroke-miterlimit="10" cx="10.001" cy="10" r="9.626"/>
<path id="path10847-43-3-9-9_2_" inkscape:connector-curvature="0" sodipodi:nodetypes="cssssscccccccccccccscccssc" fill="#AA6E14" d="
	M12.501,3.5c-1.334,2-1.523,3.67-3,5c-1.411,1.271-4,0.834-4,2.667v0.667c0,0.666,0.667,1.301,0.667,2V14.5c0,1-0.333,1-0.667,2
	h0.667l1.333-2v2h1v-4h1v4h1v-3l1,3h0.666l-1.02-4.188c0.393-0.24,0.354-0.684,0.354-1.146c0-0.622,0-1.333,0-2l1.5-3.667l1.5,0.5
	c0-0.047,0-0.462,0-0.5c0,0-0.244-0.243-0.334-0.333L12.501,3.5z"/>
</svg>
